# xmcd
# 
# Track frame offsets:
#     150
#     40984
#     57280
#     97631
#     136426
#     176816
#     212963
#     238962
#     258193
#     297531
# 
# Disc length: 4239
# 
# Revision: 1
# Processed by: cddbd v1.5.2PL0 Copyright (c) Steve Scherf et al.
# Submitted via: fre:ac v1.0.31
# 
DISCID=98108d0a
DTITLE=Grafton - D10 - Y is for yesterday
DYEAR=0
DGENRE=Audiobook
TTITLE0=a
TTITLE1=b
TTITLE2=c
TTITLE3=d
TTITLE4=e
TTITLE5=f
TTITLE6=g
TTITLE7=h
TTITLE8=i
TTITLE9=j
EXTD=
EXTT0=
EXTT1=
EXTT2=
EXTT3=
EXTT4=
EXTT5=
EXTT6=
EXTT7=
EXTT8=
EXTT9=
PLAYORDER=
